<?xml version="1.0" encoding="UTF-8"?>
<svg width="229px" height="11px" viewBox="0 0 229 11" version="1.1" xmlns="http://www.w3.org/2000/svg" xmlns:xlink="http://www.w3.org/1999/xlink">
    <!-- Generator: Sketch 52.2 (67145) - http://www.bohemiancoding.com/sketch -->
    <title>brand-alt-solutions-explorer</title>
    <desc>Created with Sketch.</desc>
    <g id="Page-1" stroke="none" stroke-width="1" fill="none" fill-rule="evenodd">
        <g id="brand-alt-solutions-explorer" fill="#FFFFFF" fill-rule="nonzero">
            <path d="M5.7,10.8 L4,7.2 L2.8,7.2 L2.8,10.7 L0,10.7 L0,0.3 L4.7,0.3 C5.3,0.3 5.9,0.4 6.4,0.5 C6.9,0.6 7.3,0.8 7.7,1.1 C8,1.3 8.3,1.7 8.5,2.1 C8.7,2.5 8.8,3.1 8.8,3.7 C8.8,4.5 8.6,5.1 8.3,5.6 C7.9,6.1 7.5,6.5 6.9,6.8 L9,10.8 L5.7,10.8 Z M5.6,3 C5.4,2.8 5.1,2.7 4.6,2.7 L2.8,2.7 L2.8,5 L4.5,5 C5,5 5.3,4.9 5.5,4.7 C5.7,4.5 5.8,4.2 5.8,3.8 C5.9,3.4 5.8,3.2 5.6,3 Z M10.7,10.8 L10.7,0.3 L18.7,0.3 L18.7,2.7 L13.6,2.7 L13.6,4.1 L16.7,4.1 L16.7,6.5 L13.6,6.5 L13.6,8.3 L18.9,8.3 L18.9,10.7 L10.7,10.8 Z M29.4,7.9 C29.2,8.6 28.8,9.1 28.3,9.5 C27.8,9.9 27.2,10.2 26.5,10.4 C25.8,10.6 25,10.7 24.1,10.7 L20.7,10.7 L20.7,0.3 L24.4,0.3 C25.2,0.3 26,0.4 26.6,0.6 C27.3,0.8 27.8,1.1 28.3,1.5 C28.8,1.9 29.1,2.4 29.4,3.1 C29.7,3.8 29.8,4.6 29.8,5.6 C29.7,6.4 29.6,7.3 29.4,7.9 Z M26.6,4.3 C26.5,4 26.4,3.7 26.2,3.4 C26,3.2 25.8,3 25.5,2.9 C25.2,2.8 24.8,2.7 24.4,2.7 L23.7,2.7 L23.7,8.2 L24.3,8.2 C24.8,8.2 25.1,8.2 25.5,8.1 C25.7,8 26,7.9 26.2,7.7 C26.4,7.5 26.6,7.2 26.6,6.8 C26.7,6.4 26.7,6 26.7,5.5 C26.8,5 26.7,4.6 26.6,4.3 Z M42.1,10.8 L42.1,6.6 L38.8,6.6 L38.8,10.7 L35.8,10.7 L35.8,0.3 L38.8,0.3 L38.8,4.1 L42.1,4.1 L42.1,0.3 L45.1,0.3 L45.1,10.8 L42.1,10.8 Z M53.9,10.8 L53.3,9 L50.2,9 L49.6,10.8 L46.5,10.8 L50.3,0.3 L53.2,0.3 L57,10.8 L53.9,10.8 Z M52.4,5.9 C52.3,5.6 52.2,5.3 52.2,5 C52.1,4.8 52.1,4.5 52,4.3 C52,4.2 51.9,4 51.9,3.8 C51.9,3.6 51.8,3.5 51.8,3.3 C51.8,3.5 51.7,3.7 51.7,3.8 C51.7,4 51.6,4.2 51.6,4.4 C51.5,4.6 51.5,4.8 51.4,5.1 C51.3,5.3 51.3,5.6 51.2,6 L51,6.7 L52.7,6.7 L52.4,5.9 Z M62.5,2.8 L62.5,10.7 L59.6,10.7 L59.6,2.8 L56.7,2.8 L56.7,0.3 L65.5,0.3 L65.5,2.8 L62.5,2.8 Z M68.9,1.7 C68.8,1.8 68.8,1.9 68.7,2 C68.6,2.1 68.5,2.2 68.4,2.2 C68.3,2.3 68.1,2.3 68,2.3 C67.9,2.3 67.7,2.3 67.6,2.2 C67.5,2.1 67.4,2.1 67.3,2 C67.1,2 67,1.9 66.9,1.7 C66.8,1.6 66.8,1.4 66.8,1.3 C66.8,1.2 66.8,1 66.9,0.9 C67,0.8 67,0.7 67.1,0.6 C67.2,0.5 67.3,0.4 67.4,0.4 C67.5,0.3 67.7,0.3 67.8,0.3 C68,0.3 68.1,0.3 68.2,0.4 C68.3,0.5 68.4,0.5 68.5,0.6 C68.6,0.7 68.7,0.8 68.7,0.9 C68.9,1 69,1.2 69,1.3 C69,1.5 68.9,1.6 68.9,1.7 Z M68.7,1 C68.7,0.9 68.6,0.8 68.5,0.7 C68.4,0.6 68.3,0.6 68.2,0.5 C68.1,0.5 68,0.4 67.9,0.4 C67.8,0.4 67.7,0.4 67.6,0.5 C67.5,0.5 67.4,0.6 67.3,0.7 C67.2,0.8 67.2,0.9 67.1,1 C67,1.1 67,1.2 67,1.3 C67,1.4 67,1.5 67.1,1.6 C67.1,1.7 67.2,1.8 67.3,1.9 C67.4,2 67.5,2 67.6,2.1 C67.7,2.1 67.8,2.2 67.9,2.2 C68,2.2 68.1,2.2 68.2,2.1 C68.3,2.1 68.4,2 68.5,1.9 C68.6,1.8 68.6,1.7 68.7,1.6 C68.7,1.5 68.8,1.4 68.8,1.3 C68.8,1.2 68.8,1.1 68.7,1 Z M68.3,1.3 C68.3,1.4 68.2,1.4 68.1,1.4 L68.3,1.9 L68.1,1.9 L67.9,1.5 L67.7,1.5 L67.7,1.9 L67.5,1.9 L67.5,0.7 L68,0.7 L68.1,0.7 C68.1,0.7 68.2,0.7 68.2,0.8 L68.3,0.9 C68.3,0.9 68.3,1 68.3,1.1 C68.4,1.2 68.4,1.2 68.3,1.3 Z M68.1,1 L67.7,1 L67.7,1.3 L68,1.3 C68.1,1.3 68.1,1.3 68.1,1.3 L68.2,1.2 C68.2,1 68.2,1 68.1,1 Z M72.8,8.1 L74.6,7.4 C75.1,8.4 75.9,9 76.9,9 C77.9,9 78.6,8.6 78.6,7.7 C78.6,6.8 77.6,6.5 76.5,6.1 C75,5.7 73.2,5.1 73.2,3 C73.2,1.4 74.5,0.1 76.8,0.1 C78.7,0.1 79.9,1.2 80.3,2.5 L78.5,3.1 C78.2,2.5 77.7,2 76.7,2 C75.8,2 75.3,2.4 75.3,3 C75.3,3.7 76.2,3.9 77.2,4.3 C78.8,4.8 80.7,5.5 80.7,7.7 C80.7,9.7 79,10.9 76.9,10.9 C74.9,11 73.4,9.9 72.8,8.1 Z M82.2,5.6 C82.2,3 83.4,0.2 86.8,0.2 C90.2,0.2 91.4,3 91.4,5.6 C91.4,8.2 90.2,11 86.8,11 C83.5,11 82.2,8.2 82.2,5.6 Z M89.4,5.6 C89.4,4 88.8,2.1 86.9,2.1 C85,2.1 84.4,4.1 84.4,5.6 C84.3,7.1 85,9 86.8,9 C88.7,9 89.4,7.1 89.4,5.6 Z M93.5,0.3 L95.5,0.3 L95.5,8.8 L100.6,8.8 L100.6,10.8 L93.5,10.8 L93.5,0.3 Z M101.9,6.8 L101.9,0.3 L103.9,0.3 L103.9,6.8 C103.9,8.5 104.7,9 106.1,9 C107.4,9 108.3,8.5 108.3,6.8 L108.3,0.3 L110.3,0.3 L110.3,6.8 C110.3,9.9 108.3,11 106.1,11 C104,11 101.9,10 101.9,6.8 Z M117,10.8 L115,10.8 L115,2.3 L112,2.3 L112,0.3 L120,0.3 L120,2.2 L117,2.2 L117,10.8 Z M121.8,0.3 L123.8,0.3 L123.8,10.8 L121.8,10.8 L121.8,0.3 Z M125.9,5.6 C125.9,3 127.1,0.2 130.5,0.2 C133.9,0.2 135.1,3 135.1,5.6 C135.1,8.2 133.9,11 130.5,11 C127.1,11 125.9,8.2 125.9,5.6 Z M133,5.6 C133,4 132.4,2.1 130.5,2.1 C128.6,2.1 128,4.1 128,5.6 C128,7.2 128.6,9.1 130.5,9.1 C132.3,9 133,7.1 133,5.6 Z M143.7,10.8 L139.5,4.7 C139.4,4.5 139.2,4.2 139.1,3.9 C139.1,4.2 139.1,4.5 139.1,4.7 L139.1,10.8 L137.1,10.8 L137.1,0.3 L139,0.3 L143.1,6.3 C143.2,6.5 143.4,6.8 143.5,7.1 C143.5,6.9 143.5,6.5 143.5,6.3 L143.5,0.3 L145.5,0.3 L145.5,10.8 L143.7,10.8 Z M151.7,0.3 L158.9,0.3 L158.9,2.2 L153.8,2.2 L153.8,4.4 L156.8,4.4 L156.8,6.3 L153.8,6.3 L153.8,8.8 L159.3,8.8 L159.3,10.7 L151.8,10.7 L151.8,0.3 L151.7,0.3 Z M165.2,7.3 L163,10.8 L160.6,10.8 L164,5.4 L160.8,0.3 L163.2,0.3 L165.2,3.5 L167.2,0.3 L169.6,0.3 L166.4,5.4 L169.8,10.8 L167.4,10.8 L165.2,7.3 Z M171.5,0.3 L176,0.3 C178.7,0.3 179.6,2 179.6,3.6 C179.6,5.1 178.6,6.9 176,6.9 L173.5,6.9 L173.5,10.8 L171.5,10.8 L171.5,0.3 Z M177.5,3.6 C177.5,3 177.2,2.2 176.1,2.2 L173.5,2.2 L173.5,5 L176.1,5 C177.1,5 177.5,4.3 177.5,3.6 Z M181.1,0.3 L183.1,0.3 L183.1,8.8 L188.2,8.8 L188.2,10.8 L181.1,10.8 L181.1,0.3 Z M189.2,5.6 C189.2,3 190.4,0.2 193.8,0.2 C197.2,0.2 198.4,3 198.4,5.6 C198.4,8.2 197.2,11 193.8,11 C190.4,11 189.2,8.2 189.2,5.6 Z M196.4,5.6 C196.4,4 195.8,2.1 193.9,2.1 C192,2.1 191.4,4.1 191.4,5.6 C191.4,7.2 192,9.1 193.9,9.1 C195.7,9 196.4,7.1 196.4,5.6 Z M200.5,0.3 L205.4,0.3 C208,0.3 208.9,1.9 208.9,3.6 C208.9,4.8 208.2,6.1 206.9,6.6 L208.9,10.8 L206.6,10.8 L204.6,6.9 L202.5,6.9 L202.5,10.8 L200.5,10.8 L200.5,0.3 Z M205.4,5 C206.4,5 206.8,4.3 206.8,3.6 C206.8,2.9 206.5,2.2 205.4,2.2 L202.5,2.2 L202.5,5 L205.4,5 Z M210.9,0.3 L218.1,0.3 L218.1,2.2 L213,2.2 L213,4.4 L216,4.4 L216,6.3 L213,6.3 L213,8.8 L218.5,8.8 L218.5,10.7 L211,10.7 L211,0.3 L210.9,0.3 Z M220.3,0.3 L225.2,0.3 C227.8,0.3 228.7,1.9 228.7,3.6 C228.7,4.8 228,6.1 226.7,6.6 L228.7,10.8 L226.4,10.8 L224.4,6.9 L222.3,6.9 L222.3,10.8 L220.3,10.8 L220.3,0.3 Z M225.2,5 C226.2,5 226.6,4.3 226.6,3.6 C226.6,2.9 226.3,2.2 225.2,2.2 L222.3,2.2 L222.3,5 L225.2,5 Z" id="Shape"></path>
        </g>
    </g>
</svg>